<svg viewBox="0 0 32 32" focusable="false" class="chakra-icon css-1ngcqk8"
  xmlns="http://www.w3.org/2000/svg">
  <circle cx="15.9015" cy="15.9463" r="3.69358" transform="rotate(135 15.9015 15.9463)"
    fill="#F7C325"></circle>
  <path fill-rule="evenodd" clip-rule="evenodd"
    d="M22.8247 22.8243C18.9726 26.6765 12.7269 26.6765 8.87461 22.8244C5.02236 18.9723 5.0223 12.7267 8.87449 8.87454C12.7267 5.02235 18.9724 5.0223 22.8246 8.87442C26.6769 12.7265 26.6769 18.9721 22.8247 22.8243ZM17.4048 17.3882C16.5487 18.2443 15.1608 18.2443 14.3048 17.3883C13.4487 16.5322 13.4487 15.1443 14.3047 14.2883C15.1608 13.4322 16.5487 13.4322 17.4048 14.2883C18.2608 15.1443 18.2608 16.5322 17.4048 17.3882Z"
    fill="#F7C325"></path>
  <circle cx="15.9015" cy="15.9463" r="3.69358" transform="rotate(135 15.9015 15.9463)"
    fill="#F7C325"></circle>
  <path fill-rule="evenodd" clip-rule="evenodd"
    d="M22.8247 22.8243C18.9726 26.6765 12.7269 26.6765 8.87461 22.8244C5.02236 18.9723 5.0223 12.7267 8.87449 8.87454C12.7267 5.02235 18.9724 5.0223 22.8246 8.87442C26.6769 12.7265 26.6769 18.9721 22.8247 22.8243ZM17.4048 17.3882C16.5487 18.2443 15.1608 18.2443 14.3048 17.3883C13.4487 16.5322 13.4487 15.1443 14.3047 14.2883C15.1608 13.4322 16.5487 13.4322 17.4048 14.2883C18.2608 15.1443 18.2608 16.5322 17.4048 17.3882Z"
    fill="#F7C325"></path>
  <rect x="18.082" y="27.9658" width="4.50102" height="24.2314"
    transform="rotate(180 18.082 27.9658)" fill="#F7C325"></rect>
  <rect x="3.71484" y="18.1006" width="4.50102" height="24.2314"
    transform="rotate(-90 3.71484 18.1006)" fill="#F7C325"></rect>
  <rect x="8.85352" y="26.0088" width="4.50102" height="24.2314"
    transform="rotate(-135 8.85352 26.0088)" fill="#F7C325"></rect>
  <rect x="5.67188" y="8.87402" width="4.50102" height="24.2314"
    transform="rotate(-45 5.67188 8.87402)" fill="#F7C325"></rect>
  <path d="M17.663 15.73H13.9473L14.5666 14.3676V11.0234H17.0437V14.3676L17.663 15.73Z" fill="white"></path>
  <path
    d="M17.8371 15.583H13.831L11.4629 19.5066L12.4894 20.849H19.2801L20.1487 19.5066L17.8371 15.583Z"
    fill="black"></path>
  <path
    d="M11.4629 19.5825L12.3945 20.8486H19.2887L20.1487 19.5825L17.1387 14.4277V10.8994H14.5158V14.4277L11.4629 19.5825Z"
    stroke="white" stroke-width="1.2"></path>
</svg>